<svg width="20" height="20" viewBox="0 0 20 20" fill="none" xmlns="http://www.w3.org/2000/svg">
<path d="M10.002 5.38503C7.44808 5.38503 5.38806 7.4455 5.38806 10C5.38806 12.5545 7.44808 14.615 10.002 14.615C12.5559 14.615 14.616 12.5545 14.616 10C14.616 7.4455 12.5559 5.38503 10.002 5.38503ZM10.002 13.0003C8.35159 13.0003 7.00234 11.6548 7.00234 10C7.00234 8.3452 8.34757 6.99967 10.002 6.99967C11.6564 6.99967 13.0017 8.3452 13.0017 10C13.0017 11.6548 11.6524 13.0003 10.002 13.0003ZM15.8809 5.19625C15.8809 5.79471 15.399 6.27268 14.8047 6.27268C14.2064 6.27268 13.7285 5.79069 13.7285 5.19625C13.7285 4.60181 14.2104 4.11983 14.8047 4.11983C15.399 4.11983 15.8809 4.60181 15.8809 5.19625ZM18.9368 6.28874C18.8685 4.84681 18.5392 3.56956 17.4831 2.51724C16.431 1.46491 15.154 1.13556 13.7124 1.06326C12.2267 0.978913 7.77334 0.978913 6.28756 1.06326C4.84997 1.13154 3.57301 1.46089 2.5169 2.51322C1.46079 3.56555 1.13553 4.8428 1.06325 6.28473C0.978918 7.77084 0.978918 12.2251 1.06325 13.7113C1.13151 15.1532 1.46079 16.4304 2.5169 17.4828C3.57301 18.5351 4.84596 18.8644 6.28756 18.9367C7.77334 19.0211 12.2267 19.0211 13.7124 18.9367C15.154 18.8685 16.431 18.5391 17.4831 17.4828C18.5352 16.4304 18.8645 15.1532 18.9368 13.7113C19.0211 12.2251 19.0211 7.77485 18.9368 6.28874ZM17.0173 15.3058C16.7041 16.093 16.0977 16.6995 15.3066 17.0168C14.122 17.4868 11.3111 17.3783 10.002 17.3783C8.69292 17.3783 5.87797 17.4828 4.69738 17.0168C3.91032 16.7036 3.30396 16.0971 2.98673 15.3058C2.5169 14.1209 2.62532 11.3094 2.62532 10C2.62532 8.69062 2.52091 5.87504 2.98673 4.69419C3.29994 3.90695 3.9063 3.30046 4.69738 2.98315C5.88199 2.51322 8.69292 2.62167 10.002 2.62167C11.3111 2.62167 14.126 2.51724 15.3066 2.98315C16.0937 3.29644 16.7001 3.90293 17.0173 4.69419C17.4871 5.87906 17.3787 8.69062 17.3787 10C17.3787 11.3094 17.4871 14.125 17.0173 15.3058Z" fill="black"/>
</svg>
