<svg width="87" height="33" viewBox="0 0 87 33" fill="none" xmlns="http://www.w3.org/2000/svg">
<path d="M14.9439 9.99635C17.5771 9.99635 19.6674 10.8662 21.2147 12.6058C22.762 14.3187 23.5357 16.6472 23.5357 19.5912V32.719H15.5547V20.635C15.5547 19.3504 15.2154 18.3467 14.5367 17.6241C13.8581 16.8747 12.9487 16.5 11.8086 16.5C10.6141 16.5 9.67759 16.8747 8.99894 17.6241C8.32028 18.3467 7.98096 19.3504 7.98096 20.635V32.719H0V10.1971H7.98096V13.4088C8.68676 12.3917 9.63687 11.5754 10.8313 10.9599C12.0257 10.3175 13.3966 9.99635 14.9439 9.99635Z" fill="black"/>
<path d="M31.9461 8.10949C30.5345 8.10949 29.3944 7.73479 28.5257 6.9854C27.6842 6.20925 27.2634 5.24574 27.2634 4.09489C27.2634 2.91728 27.6842 1.94039 28.5257 1.16424C29.3944 0.388079 30.5345 0 31.9461 0C33.3305 0 34.4435 0.388079 35.2851 1.16424C36.1537 1.94039 36.5881 2.91728 36.5881 4.09489C36.5881 5.24574 36.1537 6.20925 35.2851 6.9854C34.4435 7.73479 33.3305 8.10949 31.9461 8.10949ZM35.8959 10.1971V32.719H27.9149V10.1971H35.8959Z" fill="black"/>
<path d="M39.1378 21.438C39.1378 19.1095 39.6264 17.0754 40.6037 15.3358C41.581 13.5961 42.9383 12.2579 44.6756 11.3212C46.4401 10.3844 48.4489 9.91606 50.702 9.91606C53.6067 9.91606 56.0498 10.7056 58.0315 12.2847C60.0132 13.837 61.289 16.0182 61.8591 18.8285H53.3895C52.9009 17.3564 51.9508 16.6204 50.5392 16.6204C49.5348 16.6204 48.7339 17.0353 48.1367 17.865C47.5667 18.6679 47.2816 19.8589 47.2816 21.438C47.2816 23.017 47.5667 24.2214 48.1367 25.0511C48.7339 25.8808 49.5348 26.2956 50.5392 26.2956C51.9779 26.2956 52.928 25.5596 53.3895 24.0876H61.8591C61.289 26.871 60.0132 29.0523 58.0315 30.6314C56.0498 32.2105 53.6067 33 50.702 33C48.4489 33 46.4401 32.5316 44.6756 31.5949C42.9383 30.6582 41.581 29.32 40.6037 27.5803C39.6264 25.8406 39.1378 23.7932 39.1378 21.438Z" fill="black"/>
<path d="M87 21.1971C87 21.8127 86.9593 22.4282 86.8778 23.0438H71.771C71.8525 24.2749 72.1918 25.1983 72.789 25.8139C73.4134 26.4027 74.2006 26.6971 75.1507 26.6971C76.4809 26.6971 77.431 26.1083 78.0011 24.9307H86.5114C86.1585 26.483 85.4662 27.8747 84.4347 29.1058C83.4303 30.3102 82.1544 31.2603 80.6071 31.9562C79.0598 32.6521 77.3496 33 75.4765 33C73.2234 33 71.2145 32.5316 69.45 31.5949C67.7127 30.6582 66.3418 29.32 65.3374 27.5803C64.3601 25.8406 63.8715 23.7932 63.8715 21.438C63.8715 19.0827 64.3601 17.0487 65.3374 15.3358C66.3147 13.5961 67.672 12.2579 69.4093 11.3212C71.1738 10.3844 73.1962 9.91606 75.4765 9.91606C77.7296 9.91606 79.7248 10.371 81.4622 11.281C83.1996 12.191 84.5569 13.5024 85.5341 15.2153C86.5114 16.9015 87 18.8954 87 21.1971ZM78.8562 19.2299C78.8562 18.2664 78.5304 17.517 77.8789 16.9818C77.2274 16.4197 76.413 16.1387 75.4358 16.1387C74.4585 16.1387 73.6577 16.4063 73.0333 16.9416C72.409 17.4501 72.0018 18.2129 71.8117 19.2299H78.8562Z" fill="black"/>
</svg>
